#!OML:ASF \\sashay\E\basketball\basketball\Project 1\Capture day 1\Session 1\Subject.ASF
:FULLY-SPECIFIED
:DEGREES
106
root 18.5561 15.1402 19.7633 5.76085 67.6968 7.01807
lowerback 11.3708 2.31651 1.95191
upperback 6.71599 3.47239 1.15908
thorax 0.682857 1.86608 -0.256122
lowerneck 2.66357 -8.41361 -14.2489
upperneck -9.10473 -10.3408 24.2133
head -0.853484 -5.50213 9.94862
rclavicle -1.27222e-014 3.33958e-014
rhumerus -17.1666 -13.8083 -82.8759
rradius 48.9507
rwrist -7.50164
rhand -37.0315 63.4175
rfingers 7.12502
rthumb -10.105 33.6801
lclavicle -1.27222e-014 3.33958e-014
lhumerus -29.2557 -15.4561 103.534
lradius 82.721
lwrist -16.0888
lhand -38.4922 29.0322
lfingers 7.12502
lthumb -11.514 58.6959
rfemur -27.1369 -16.9754 23.1007
rtibia 57.1539
rfoot -23.0569 -5.16741
rtoes 13.9592
lfemur -10.7229 -1.90481 -9.3476
ltibia 95.7481
lfoot -3.04382 5.79286
ltoes -22.353
107
root 18.9138 15.2526 20.0327 5.03563 67.2027 5.62176
lowerback 10.7565 2.57926 2.25298
upperback 6.6244 3.82133 1.26851
thorax 0.938623 2.04395 -0.315774
lowerneck 2.94759 -8.17729 -14.1754
upperneck -8.61958 -10.095 24.3948
head -0.809928 -5.38936 10.0123
rclavicle 3.18055e-014 -2.94201e-014
rhumerus -16.6741 -13.9399 -83.6116
rradius 47.0647
rwrist -8.55397
rhand -37.2455 61.2207
rfingers 7.12502
rthumb -10.3115 31.4935
lclavicle 3.18055e-014 -2.94201e-014
lhumerus -26.7308 -18.4506 104.063
lradius 74.159
lwrist -18.4645
lhand -39.0742 29.5713
lfingers 7.12502
lthumb -12.0752 59.2029
rfemur -25.1805 -15.7508 23.7112
rtibia 55.8442
rfoot -22.3934 -6.19604
rtoes 11.5172
lfemur -11.9942 -0.655642 -10.334
ltibia 93.9617
lfoot -4.40603 6.16003
ltoes -20.6532
108
root 19.2299 15.3524 20.2826 3.70257 67.6585 4.71661
lowerback 11.7322 2.46578 2.56413
upperback 6.61671 3.7434 1.40159
thorax 0.413272 2.01058 -0.39693
lowerneck 3.45946 -8.20259 -14.4626
upperneck -8.93241 -10.099 25.1874
head -0.9116 -5.44346 10.3757
rclavicle -2.38542e-014 7.95139e-015
rhumerus -16.534 -14.6685 -84.0539
rradius 45.0365
rwrist -7.54712
rhand -36.2256 60.3797
rfingers 7.12502
rthumb -9.32749 30.6061
lclavicle -2.38542e-014 7.95139e-015
lhumerus -24.08 -21.3062 104.391
lradius 65.3085
lwrist -21.9298
lhand -39.3447 29.7218
lfingers 7.12502
lthumb -12.336 59.3379
rfemur -22.1109 -15.4675 23.8072
rtibia 54.639
rfoot -21.5237 -6.95752
rtoes 10.0354
lfemur -12.4549 -0.789687 -11.7002
ltibia 91.8663
lfoot -5.75286 7.18062
ltoes -19.2033
109
root 19.5807 15.4447 20.5521 0.376577 67.1846 1.75085
lowerback 11.7377 2.66982 3.48154
upperback 7.25407 4.1184 1.69035
thorax 1.13579 2.24862 -0.620162
lowerneck 2.9044 -8.22743 -14.0688
upperneck -7.46996 -10.315 24.7907
head -0.418578 -5.47427 10.0746
rclavicle -8.74653e-015 -3.4191e-014
rhumerus -15.5752 -15.9786 -84.721
rradius 42.5705
rwrist -6.13788
rhand -35.2309 59.1082
rfingers 7.12502
rthumb -8.3676 29.294
lclavicle -8.74653e-015 -3.4191e-014
lhumerus -20.3529 -24.295 104.265
lradius 56.1639
lwrist -25.6462
lhand -38.945 30.0123
lfingers 7.12502
lthumb -11.9506 59.6512
rfemur -19.0549 -14.0306 24.869
rtibia 53.4975
rfoot -21.0168 -7.37182
rtoes 6.4289
lfemur -12.4617 0.38043 -11.66
ltibia 89.4981
lfoot -7.44588 7.7014
ltoes -19.1575
110
root 19.885 15.5658 20.8265 2.07865 68.7274 2.42548
lowerback 11.4973 2.36731 2.79256
upperback 6.52789 3.6341 1.78504
thorax 0.433634 1.9549 -0.107678
lowerneck 3.86653 -7.7425 -14.4002
upperneck -6.79559 -9.84719 25.0204
head -0.464703 -5.27662 10.2756
rclavicle 8.34896e-015 -3.49861e-014
rhumerus -15.977 -17.6855 -84.9319
rradius 40.161
rwrist -3.43919
rhand -34.5878 57.8885
rfingers 7.12502
rthumb -7.74697 28.0504
lclavicle 8.34896e-015 -3.49861e-014
lhumerus -17.9906 -26.4218 104.69
lradius 47.2586
lwrist -29.7227
lhand -37.2679 29.4501
lfingers 7.12502
lthumb -10.3331 59.1762
rfemur -18.186 -14.4355 24.9097
rtibia 52.6867
rfoot -20.5484 -6.95101
rtoes 2.92602
lfemur -15.1756 -0.790028 -13.5436
ltibia 87.035
lfoot -8.24095 8.93622
ltoes -20.4585
111
root 20.2237 15.677 21.0932 2.1121 69.8434 2.05737
lowerback 10.692 2.01584 2.56426
upperback 6.79151 3.12304 2.01636
thorax 1.10851 1.70185 0.356219
lowerneck 3.35972 -8.28254 -14.1383
upperneck -6.45407 -10.574 25.4209
head -0.117289 -5.60901 10.2824
rclavicle 3.53837e-014 -3.65764e-014
rhumerus -15.3968 -19.4673 -85.3452
rradius 38.0116
rwrist 0.274643
rhand -33.8561 55.8832
rfingers 7.12502
rthumb -7.04068 26.0203
lclavicle 3.53837e-014 -3.65764e-014
lhumerus -14.6288 -27.8982 104.511
lradius 39.6068
lwrist -31.5904
lhand -33.2095 29.3505
lfingers 7.12502
lthumb -6.41651 59.2333
rfemur -16.5029 -14.6114 25.0675
rtibia 51.9597
rfoot -19.4284 -6.13624
rtoes 1.70285
lfemur -16.5854 -1.73599 -14.9081
ltibia 84.2068
lfoot -9.25425 9.8118
ltoes -20.3347
112
root 20.5602 15.7737 21.3593 1.2923 71.3464 1.06105
lowerback 10.6257 1.50739 2.57052
upperback 6.73108 2.45768 2.30584
thorax 1.06074 1.36539 0.714233
lowerneck 3.82198 -8.4643 -14.3327
upperneck -6.4096 -10.8645 26.0705
head -0.0666955 -5.79053 10.5483
rclavicle -7.11649e-014 -3.97569e-015
rhumerus -14.9296 -20.7443 -85.5598
rradius 34.9119
rwrist 3.3451
rhand -34.0141 56.5997
rfingers 7.12502
rthumb -7.19314 26.742
lclavicle -7.11649e-014 -3.97569e-015
lhumerus -12.5983 -28.7547 104.694
lradius 32.8634
lwrist -33.3231
lhand -28.4967 30.5557
lfingers 7.12502
lthumb -1.86567 60.5273
rfemur -14.6419 -15.4081 25.3146
rtibia 51.3122
rfoot -17.6261 -5.46168
rtoes 0.747068
lfemur -17.8398 -3.05831 -15.8416
ltibia 81.2901
lfoot -10.1429 10.1792
ltoes -20.3216
113
root 20.8975 15.8688 21.6276 0.958439 72.7214 0.608336
lowerback 10.5582 1.0403 2.33306
upperback 6.80529 1.82719 2.54911
thorax 1.15594 1.04381 1.16124
lowerneck 3.83301 -8.51431 -14.4922
upperneck -6.2578 -10.9617 26.398
head 0.0282649 -5.83821 10.6811
rclavicle -1.27222e-014 -3.57812e-014
rhumerus -14.4881 -22.9135 -85.6265
rradius 32.7443
rwrist 8.05522
rhand -33.8403 56.3236
rfingers 7.12502
rthumb -7.0254 26.4601
lclavicle -1.27222e-014 -3.57812e-014
lhumerus -11.1223 -26.9405 104.698
lradius 28.3666
lwrist -32.7776
lhand -22.3714 29.9902
lfingers 7.12502
lthumb 4.05009 59.9314
rfemur -12.8544 -16.039 25.3244
rtibia 50.6763
rfoot -15.667 -4.63895
rtoes -0.455267
lfemur -18.9045 -4.19362 -16.8497
ltibia 78.1101
lfoot -10.6285 10.1234
ltoes -22.2014
114
root 21.243 15.953 21.9013 -1.94158 73.7024 -2.38569
lowerback 10.6605 0.561595 2.63725
upperback 6.9102 1.24048 2.97827
thorax 1.21122 0.759829 1.49092
lowerneck 3.79849 -8.51187 -14.5302
upperneck -6.67625 -10.864 26.8397
head -0.0651613 -5.81049 10.8613
rclavicle 1.66979e-014 -5.56597e-015
rhumerus -14.2017 -25.3988 -85.6523
rradius 30.5306
rwrist 12.0962
rhand -33.5041 56.8183
rfingers 7.12502
rthumb -6.70083 26.9443
lclavicle 1.66979e-014 -5.56597e-015
lhumerus -10.1021 -23.9418 104.706
lradius 25.0065
lwrist -30.9398
lhand -18.8607 33.6531
lfingers 7.12502
lthumb 7.43958 63.5022
rfemur -10.8145 -16.1869 26.1093
rtibia 49.8683
rfoot -13.7764 -3.34675
rtoes -0.748593
lfemur -19.7531 -4.8221 -16.8419
ltibia 74.8986
lfoot -10.907 9.25871
ltoes -24.0837
115
root 21.6019 16.0408 22.1687 -1.36433 74.9284 -2.20211
lowerback 10.411 -0.0420996 2.18787
upperback 6.80177 0.396314 3.11255
thorax 1.23572 0.319538 1.96183
lowerneck 3.73156 -8.42225 -14.7007
upperneck -6.89684 -10.6853 27.2944
head -0.107329 -5.73143 11.0705
rclavicle -9.14409e-015 4.29375e-014
rhumerus -13.9791 -27.3376 -86.0039
rradius 29.016
rwrist 14.9062
rhand -34.3696 53.9097
rfingers 7.12502
rthumb -7.53637 24.064
lclavicle -9.14409e-015 4.29375e-014
lhumerus -10.5937 -19.0168 104.566
lradius 24.4046
lwrist -29.4025
lhand -18.9834 36.3314
lfingers 7.12502
lthumb 7.3212 66.1847
rfemur -9.21686 -16.869 25.7332
rtibia 49.1314
rfoot -11.6126 -1.75497
rtoes -1.91608
lfemur -20.8546 -5.78221 -17.977
ltibia 71.4559
lfoot -10.9716 8.32589
ltoes -23.7497
